<?xml version="1.0" encoding="UTF-8" standalone="no"?>
<!-- Created with Inkscape (http://www.inkscape.org/) -->

<svg
   width="3840"
   height="2160"
   viewBox="0 0 3840 2160"
   version="1.1"
   id="svg1"
   xml:space="preserve"
   inkscape:version="1.3.2 (091e20ef0f, 2023-11-25, custom)"
   sodipodi:docname="logo-1.svg"
   inkscape:export-filename="logo.png"
   inkscape:export-xdpi="96"
   inkscape:export-ydpi="96"
   xmlns:inkscape="http://www.inkscape.org/namespaces/inkscape"
   xmlns:sodipodi="http://sodipodi.sourceforge.net/DTD/sodipodi-0.dtd"
   xmlns="http://www.w3.org/2000/svg"
   xmlns:svg="http://www.w3.org/2000/svg"><sodipodi:namedview
     id="namedview1"
     pagecolor="#ffffff"
     bordercolor="#000000"
     borderopacity="0.25"
     inkscape:showpageshadow="2"
     inkscape:pageopacity="0.0"
     inkscape:pagecheckerboard="0"
     inkscape:deskcolor="#d1d1d1"
     inkscape:document-units="px"
     showguides="true"
     inkscape:zoom="0.35455254"
     inkscape:cx="1793.8103"
     inkscape:cy="1083.0553"
     inkscape:window-width="2480"
     inkscape:window-height="1374"
     inkscape:window-x="1920"
     inkscape:window-y="29"
     inkscape:window-maximized="1"
     inkscape:current-layer="layer1" /><defs
     id="defs1"><inkscape:path-effect
       effect="copy_rotate"
       starting_point="0,0"
       origin="1307.2719,543.58697"
       id="path-effect17"
       is_visible="true"
       lpeversion="1.2"
       lpesatellites=""
       method="normal"
       num_copies="2"
       starting_angle="0"
       rotation_angle="15"
       gap="10"
       copies_to_360="false"
       mirror_copies="true"
       split_items="false"
       link_styles="false" /><style
       id="style1">.cls-1{fill:#231f20;}</style></defs><g
     inkscape:label="Layer 1"
     inkscape:groupmode="layer"
     id="layer1"><g
       inkscape:label="Layer 1"
       id="layer1-5"
       transform="matrix(0.93800717,0,0,0.93800717,503.02655,263.9507)"><g
         id="g1"
         transform="matrix(7.3236156,0,0,7.3236156,1007.6587,50.898924)"
         style="display:none"
         sodipodi:insensitive="true"><path
           class="cls-1"
           d="m 246.47,247.14 -0.34,-1.09 c -2.87,-9 -4.55,-19.12 -6.5,-30.79 -2.66,-15.95 -5.68,-34 -12.67,-54.58 -5.19,-15.25 -15.14,-28.37 -27.63,-36.65 A 2,2 0 0 1 198.86,121.19 39.79,39.79 0 0 0 140,68 a 1.93,1.93 0 0 1 -2.68,0 39.78,39.78 0 1 0 -52,60.1 2.54,2.54 0 0 1 0.93,2.4 86.89,86.89 0 0 0 38.53,87.05 v 0 a 104,104 0 0 0 14.22,12.24 2.05,2.05 0 0 1 0.7,2.44 98.94,98.94 0 0 1 -7.63,14.92 8.86,8.86 0 0 1 -7.58,4.13 h -3.85 a 10.11,10.11 0 0 0 -9.45,6.44 l -1.69,4.36 a 3.88,3.88 0 0 0 0.4,3.63 3.93,3.93 0 0 0 3.25,1.73 h 48.75 a 8,8 0 0 0 2.18,-0.51 14.81,14.81 0 0 0 1.6,-0.64 3.67,3.67 0 0 1 1.56,-0.36 3.62,3.62 0 0 1 1.48,0.32 10.21,10.21 0 0 0 1.15,0.46 12.67,12.67 0 0 0 4.26,0.73 H 176 a 5.33,5.33 0 0 0 3.76,-1.49 5.19,5.19 0 0 0 1.4,-5.07 l -0.89,-3.41 a 8.3,8.3 0 0 0 -4.07,-5.17 0.81,0.81 0 0 1 -0.3,-1.17 c 1.06,-1.61 2.08,-3.28 3.07,-5 v 0 a 1.6,1.6 0 0 1 2.07,-0.65 164.07,164.07 0 0 0 25.49,9.57 1.92,1.92 0 0 0 2.09,-0.75 v 0 c 1.82,-2.56 3.59,-5.3 5.24,-8.15 0.83,-1.42 1.6,-2.87 2.34,-4.32 a 1.71,1.71 0 0 1 2.22,-0.8 104.47,104.47 0 0 0 25.59,7.5 l 1.14,0.18 a 1.22,1.22 0 0 0 1.32,-1.57 z m -46,-136.21 a 36.08,36.08 0 0 1 -14.94,16.83 1.71,1.71 0 0 1 -2.53,-1.66 27,27 0 0 0 -2,-12.87 7.38,7.38 0 0 1 0.58,-6.56 19.26,19.26 0 0 0 2.69,-8.21 2.14,2.14 0 0 1 2.58,-1.87 23,23 0 0 1 12.45,6.85 7,7 0 0 1 1.17,7.49 z M 193.1,74.12 v 0 a 5.14,5.14 0 0 1 3.93,2.2 35.71,35.71 0 0 1 6.37,20.39 c 0,0.51 0,1 0,1.54 a 1.6,1.6 0 0 1 -2.69,1.09 28.05,28.05 0 0 0 -14.19,-6.75 4.63,4.63 0 0 1 -3.52,-2.88 19.6,19.6 0 0 0 -4.2,-6.51 2.89,2.89 0 0 1 0.29,-4.3 20.54,20.54 0 0 1 14.01,-4.78 z m -54.47,27.26 A 11.57,11.57 0 0 1 150.2,112.94 11.46,11.46 0 0 1 149,118 l -9.12,19.18 a 1.4,1.4 0 0 1 -2.53,0 l -9.11,-19.16 v 0 a 11.32,11.32 0 0 1 -1.18,-5.09 11.57,11.57 0 0 1 11.57,-11.55 z m -26.39,10.78 a 15.45,15.45 0 1 1 15.45,-15.45 15.47,15.47 0 0 1 -15.45,15.45 z M 149.58,96.71 A 15.45,15.45 0 1 1 165,112.16 15.47,15.47 0 0 1 149.58,96.71 Z M 169,62 a 19,19 0 0 1 8.39,0.15 35.65,35.65 0 0 1 11.32,5.59 1.58,1.58 0 0 1 -0.66,2.82 25.78,25.78 0 0 0 -12,5.78 7.57,7.57 0 0 1 -6.6,1.54 19.65,19.65 0 0 0 -4.5,-0.53 19.22,19.22 0 0 0 -11.76,4 1.22,1.22 0 0 1 -1.89,-1.34 C 154.45,70.5 160.83,63.54 169,62 Z m -46.82,1 a 35.84,35.84 0 0 1 14.94,10.46 1.94,1.94 0 0 0 2.94,0 A 35.9,35.9 0 0 1 155,63 a 1.004353,1.004353 0 0 1 1.07,1.7 31.41,31.41 0 0 0 -5.91,8.09 46,46 0 0 0 -4.6,23.91 1.58,1.58 0 0 1 -2.08,1.6 15.5,15.5 0 0 0 -9.77,0 1.58,1.58 0 0 1 -2.08,-1.6 46,46 0 0 0 -4.61,-23.91 31.38,31.38 0 0 0 -5.9,-8.09 1.0124228,1.0124228 0 0 1 1.1,-1.7 z m -33.67,4.77 a 35.65,35.65 0 0 1 11.32,-5.59 19,19 0 0 1 8.4,-0.15 c 8.21,1.51 14.58,8.47 17.66,18 a 1.22,1.22 0 0 1 -1.89,1.36 19.22,19.22 0 0 0 -11.76,-4 19.59,19.59 0 0 0 -4.5,0.53 7.57,7.57 0 0 1 -6.6,-1.54 25.82,25.82 0 0 0 -12,-5.78 1.58,1.58 0 0 1 -0.63,-2.83 z M 73.88,98.25 c 0,-0.51 0,-1 0,-1.54 a 35.7,35.7 0 0 1 6.36,-20.39 5.18,5.18 0 0 1 3.93,-2.2 v 0 a 20.5,20.5 0 0 1 14,4.78 2.89,2.89 0 0 1 0.3,4.3 19.29,19.29 0 0 0 -4.2,6.51 4.65,4.65 0 0 1 -3.47,2.88 28.09,28.09 0 0 0 -14.19,6.75 1.6,1.6 0 0 1 -2.73,-1.09 z m 2.91,12.68 a 7,7 0 0 1 1.21,-7.49 23,23 0 0 1 12.37,-6.84 2.17,2.17 0 0 1 1.52,0.23 v 0 a 2.13,2.13 0 0 1 1.11,1.66 19.08,19.08 0 0 0 2.68,8.17 7.44,7.44 0 0 1 0.59,6.57 27.06,27.06 0 0 0 -2,12.87 1.72,1.72 0 0 1 -2.57,1.67 36.15,36.15 0 0 1 -14.91,-16.84 z m 30.09,85.21 c -0.57,-0.72 -1.13,-1.45 -1.68,-2.2 a 82.35,82.35 0 0 1 -16.27,-49.39 80.81,80.81 0 0 1 0.72,-10.79 1.75,1.75 0 0 1 2.52,-1.35 h 0.06 a 6.28,6.28 0 0 1 3.51,6 c -0.13,2.15 -0.21,4.35 -0.21,6.11 a 105.25,105.25 0 0 0 12.83,50.6 0.89872131,0.89872131 0 0 1 -1.48,1.02 z m 30.83,61.58 -1,2.55 -0.71,1.82 v 0 a 2.26,2.26 0 0 1 -2.09,1.43 h -9.14 a 0.47,0.47 0 0 1 -0.44,-0.64 l 1.1,-2.84 a 1,1 0 0 0 -0.55,-1.26 2.89,2.89 0 0 0 -3.74,1.64 l -0.66,1.68 v 0 a 2.12,2.12 0 0 1 -2,1.4 h -4.26 a 0.8,0.8 0 0 1 -0.75,-1.1 l 1.27,-3.26 a 6.24,6.24 0 0 1 5.85,-4 h 3.85 a 12.71,12.71 0 0 0 10.86,-5.94 103.15,103.15 0 0 0 7.8,-15.23 1,1 0 0 1 1.39,-0.44 c 1.87,1.18 3.8,2.31 5.76,3.38 a 2.51,2.51 0 0 1 1,3.33 99.17,99.17 0 0 1 -5.86,9.86 6,6 0 0 1 -2.53,2.1 10.15,10.15 0 0 0 -5.15,5.52 z M 163,235.64 a 1.7,1.7 0 0 1 0.68,2.22 99.58,99.58 0 0 1 -5.09,9.29 8.89,8.89 0 0 1 -7.59,4.13 0.92,0.92 0 0 1 -0.77,-1.41 104.8,104.8 0 0 0 8,-15.35 1.29,1.29 0 0 1 1.88,-0.59 q 1.46,0.87 2.89,1.71 z m -2.48,-6.91 c 0.38,-1.08 0.74,-2.16 1.08,-3.25 a 0.8,0.8 0 0 1 1.29,-0.37 q 2,1.68 4.11,3.28 a 0.91,0.91 0 0 1 0.3,1.05 c -0.33,0.9 -0.67,1.79 -1,2.68 a 0.73,0.73 0 0 1 -1,0.35 q -2.22,-1.28 -4.33,-2.63 a 1,1 0 0 1 -0.44,-1.11 z m 18,10 q -1.37,2.77 -2.92,5.48 c -1.59,2.73 -3.29,5.38 -5.06,7.87 l -1.6,2.32 a 0.47,0.47 0 0 0 0.38,0.73 h 2.86 a 4.48,4.48 0 0 1 4.33,3.33 l 0.89,3.4 a 1.32,1.32 0 0 1 -0.24,1.17 1.34,1.34 0 0 1 -1.08,0.53 h -1.94 a 8.8,8.8 0 0 1 -3,-0.5 9.5,9.5 0 0 1 -2.27,-1.15 2.63,2.63 0 0 0 -0.92,-0.41 2.84,2.84 0 0 0 -2.17,0.32 l -0.75,0.44 a 9.21,9.21 0 0 1 -3.46,1.16 l -0.45,0.06 a 12.22,12.22 0 0 1 -1.35,0.08 H 152 a 1,1 0 0 1 -0.92,-1.35 l 0.89,-2.27 a 0.88,0.88 0 0 0 -0.5,-1.13 3,3 0 0 0 -3.87,1.69 l -0.45,1.19 a 2.83,2.83 0 0 1 -2.68,1.85 h -4 a 0.63,0.63 0 0 1 -0.52,-0.28 0.64,0.64 0 0 1 -0.08,-0.6 l 1.63,-4.19 a 5.23,5.23 0 0 1 4.88,-3.33 H 151 a 12.71,12.71 0 0 0 10.86,-5.94 104.54,104.54 0 0 0 8.56,-17.13 0.79,0.79 0 0 1 1.19,-0.37 q 2.87,1.94 5.88,3.71 a 2.54,2.54 0 0 1 1.02,3.33 z m 1.8,-6.16 a 105.55,105.55 0 0 1 -9.3,-6 103.89,103.89 0 0 1 -8.73,-7.15 101.51,101.51 0 0 1 -18.47,-22.42 1,1 0 0 0 -1.32,-0.33 2.86,2.86 0 0 0 -1,4 105.54,105.54 0 0 0 13.39,17 9.22,9.22 0 0 1 2.06,9.48 c -0.77,2.21 -1.62,4.38 -2.55,6.53 a 0.88,0.88 0 0 1 -1.22,0.43 100.78,100.78 0 0 1 -53.83,-89.55 c 0,-1.69 0.09,-3.87 0.21,-6 a 2.83,2.83 0 0 1 3.3,-2.62 40.27,40.27 0 0 0 6.88,0.59 H 124 a 1.09,1.09 0 0 0 1.1,-1.06 2.76,2.76 0 0 0 -2.76,-2.79 h -12.6 a 35.56,35.56 0 0 1 -5.4,-0.41 7.35,7.35 0 0 1 -6.22,-6.4 22.88,22.88 0 0 1 1.45,-10.53 2.66,2.66 0 0 1 3.74,-1.44 19.3,19.3 0 0 0 17.78,0 1.5,1.5 0 0 1 1.41,0 v 0 a 1.53,1.53 0 0 1 0.76,1.12 14.87,14.87 0 0 0 1.43,4.7 l 9.72,20.28 a 4.68,4.68 0 0 0 8.45,0 l 9.63,-20.25 a 15.4,15.4 0 0 0 1.43,-4.7 1.57,1.57 0 0 1 0.53,-1 1.5,1.5 0 0 1 1.64,-0.17 19.3,19.3 0 0 0 17.82,0 2.68,2.68 0 0 1 3.75,1.44 23,23 0 0 1 1.47,10.33 7.43,7.43 0 0 1 -6.25,6.6 35.53,35.53 0 0 1 -5.39,0.41 h -12.6 a 2.75,2.75 0 0 0 -2.76,2.79 1.08,1.08 0 0 0 1.1,1.06 h 0.61 a 1.61,1.61 0 0 1 1.6,1.72 c -0.14,2.09 -0.22,4.2 -0.22,6.34 a 105.26,105.26 0 0 0 25.52,68.71 c 0.33,0.39 0.66,0.76 1,1.14 a 11.11,11.11 0 0 1 2.3,10.89 q -1.16,3.5 -2.55,6.89 a 0.82,0.82 0 0 1 -1.18,0.38 z m 30.84,10.49 c -0.22,0.39 -0.43,0.77 -0.66,1.15 -1.2,2.07 -2.47,4.09 -3.77,6 a 1.22,1.22 0 0 1 -1.34,0.48 162.21,162.21 0 0 1 -23.21,-8.95 0.77,0.77 0 0 1 -0.34,-1 106.27,106.27 0 0 0 6.22,-15.31 2.38,2.38 0 0 1 3.81,-1.09 106.44,106.44 0 0 0 17.44,12.2 4.8,4.8 0 0 1 1.84,6.53 z m 29.38,0.93 a 101.49,101.49 0 0 1 -81.45,-99.45 c 0,-1.78 0.06,-3.55 0.16,-5.31 a 2.93,2.93 0 0 1 2.92,-2.75 h 5 a 40.38,40.38 0 0 0 25.13,-8.69 4.59,4.59 0 0 1 5.43,-0.19 c 11.53,7.83 20.72,20.08 25.56,34.31 a 274.18,274.18 0 0 1 9.95,39.09 0.64,0.64 0 0 1 -0.92,0.69 64.43,64.43 0 0 1 -20.11,-15.57 63.65,63.65 0 0 1 -13.38,-25.57 2.65,2.65 0 0 0 -3.09,-1.91 v 0 a 1.27,1.27 0 0 0 -1,1.54 67.37,67.37 0 0 0 14.53,28.46 68.11,68.11 0 0 0 21.18,16.42 8.46,8.46 0 0 1 4.57,6.17 c 0.27,1.57 0.53,3.13 0.78,4.66 0.39,2.34 0.77,4.61 1.15,6.83 a 0.64,0.64 0 0 1 -0.82,0.72 82.68,82.68 0 0 1 -53.56,-51.53 2.63,2.63 0 0 0 -3.26,-1.62 1.28,1.28 0 0 0 -0.82,1.62 86.45,86.45 0 0 0 54.61,54.6 8.65,8.65 0 0 1 5.75,6.46 c 0.72,3.54 1.49,7 2.39,10.23 a 0.63,0.63 0 0 1 -0.71,0.8 z"
           transform="translate(-69.99,-56.92)"
           id="path1" /><path
           class="cls-1"
           d="m 113.36,104.49 a 10.16,10.16 0 0 1 -6.86,-16.29 0.54,0.54 0 0 0 -0.74,-0.75 11.3,11.3 0 1 0 15.74,15.74 0.54,0.54 0 0 0 -0.76,-0.74 10.17,10.17 0 0 1 -7.38,2.04 z"
           transform="translate(-69.99,-56.92)"
           id="path2" /><path
           class="cls-1"
           d="m 166.15,104.49 a 10.16,10.16 0 0 1 -6.86,-16.29 0.54,0.54 0 0 0 -0.74,-0.75 11.3,11.3 0 1 0 15.74,15.74 0.54,0.54 0 0 0 -0.76,-0.74 10.17,10.17 0 0 1 -7.38,2.04 z"
           transform="translate(-69.99,-56.92)"
           id="path3" /></g><g
         id="g2"
         transform="matrix(7.3236156,0,0,7.3236156,163.27871,81.689602)"
         style="display:none"
         sodipodi:insensitive="true"><path
           class="cls-1"
           d="m 246.47,247.14 -0.34,-1.09 c -2.87,-9 -4.55,-19.12 -6.5,-30.79 -2.66,-15.95 -5.68,-34 -12.67,-54.58 -5.19,-15.25 -15.14,-28.37 -27.63,-36.65 -0.93259,-0.64279 -1.14578,-1.93103 -0.47,-2.84 12.66217,-16.45112 10.54882,-39.872342 -4.85369,-53.79112 C 178.6038,53.480102 155.08888,53.741827 140,68 c -0.74772,0.721343 -1.93228,0.721343 -2.68,0 C 120.86638,52.363259 94.685342,53.641701 79.83345,70.807061 64.981558,87.972421 67.480266,114.06529 85.32,128.1 c 0.722395,0.57208 1.078295,1.49053 0.93,2.4 -5.608493,34.09671 9.519965,68.27611 38.53,87.05 v 0 c 4.36154,4.50011 9.1209,8.59677 14.22,12.24 0.76939,0.55368 1.05885,1.56265 0.7,2.44 -2.11682,5.18016 -4.66931,10.17139 -7.63,14.92 -1.63983,2.59764 -4.50821,4.16049 -7.58,4.13 h -3.85 c -4.1781,-0.0122 -7.93333,2.54688 -9.45,6.44 l -1.69,4.36 c -0.48004,1.20104 -0.33004,2.56231 0.4,3.63 0.7295,1.07984 1.94684,1.72784 3.25,1.73 h 48.75 c 0.74698,-0.067 1.48083,-0.23866 2.18,-0.51 0.5453,-0.1821 1.07954,-0.39579 1.6,-0.64 0.48717,-0.23334 1.01984,-0.35627 1.56,-0.36 0.51038,10e-4 1.01474,0.11019 1.48,0.32 0.37367,0.17646 0.75771,0.33008 1.15,0.46 1.36771,0.48553 2.80867,0.73245 4.26,0.73 H 176 c 1.40041,0.0166 2.7511,-0.51863 3.76,-1.49 1.35188,-1.31088 1.88766,-3.25116 1.4,-5.07 l -0.89,-3.41 c -0.58648,-2.21045 -2.05901,-4.08097 -4.07,-5.17 -0.42897,-0.22244 -0.56901,-0.76859 -0.3,-1.17 1.06,-1.61 2.08,-3.28 3.07,-5 v 0 c 0.4153,-0.72285 1.31603,-1.00569 2.07,-0.65 8.21685,3.89072 16.74286,7.09173 25.49,9.57 0.78524,0.21905 1.6232,-0.0817 2.09,-0.75 v 0 c 1.82,-2.56 3.59,-5.3 5.24,-8.15 0.83,-1.42 1.6,-2.87 2.34,-4.32 0.40797,-0.81633 1.38508,-1.16845 2.22,-0.8 8.1746,3.58287 16.77464,6.10339 25.59,7.5 l 1.14,0.18 c 0.87992,0.11216 1.5816,-0.72241 1.32,-1.57 z m -46,-136.21 c -3.0583,7.05935 -8.29303,12.95631 -14.94,16.83 -1.20406,0.66619 -2.66178,-0.29025 -2.53,-1.66 0.39355,-4.38893 -0.2931,-8.80748 -2,-12.87 -0.84712,-2.15648 -0.63235,-4.58561 0.58,-6.56 1.50681,-2.49765 2.42662,-5.30494 2.69,-8.21 0.13204,-1.26697 1.33485,-2.138771 2.58,-1.87 4.769,0.911966 9.12707,3.309776 12.45,6.85 1.82516,2.05115 2.28266,4.97993 1.17,7.49 z M 193.1,74.12 v 0 c 1.57866,0.08981 3.02813,0.901214 3.93,2.2 4.15411,5.98748 6.37692,13.102579 6.37,20.39 v 1.54 c -0.0676,1.359918 -1.69481,2.01927 -2.69,1.09 -3.9903,-3.555982 -8.91351,-5.897887 -14.19,-6.75 -1.59648,-0.27786 -2.93151,-1.370156 -3.52,-2.88 -0.95292,-2.42783 -2.38081,-4.641058 -4.2,-6.51 -1.20542,-1.232855 -1.07004,-3.240165 0.29,-4.3 3.91357,-3.279257 8.90821,-4.983352 14.01,-4.78 z m -54.47,27.26 c 6.38603,0 11.56448,5.17397 11.57,11.56 -0.007,1.75634 -0.41754,3.48757 -1.2,5.06 l -9.12,19.18 c -0.50589,1.06692 -2.02411,1.06692 -2.53,0 l -9.11,-19.16 v 0 c -0.78488,-1.58143 -1.18897,-3.32453 -1.18,-5.09 0.011,-6.38212 5.18787,-11.55001 11.57,-11.55 z m -26.39,10.78 C 98.474563,112.16 91.583301,95.518209 101.31576,85.785755 111.04821,76.053301 127.69,82.944563 127.69,96.71 c -0.011,8.52823 -6.92177,15.43898 -15.45,15.45 z m 37.34,-15.45 c 3e-5,-13.772669 16.65676,-20.660611 26.38485,-10.913591 9.7281,9.747019 2.80779,26.390331 -10.96485,26.363591 -8.51651,-0.0275 -15.40903,-6.93345 -15.42,-15.45 z M 169,62 c 2.77289,-0.575916 5.63946,-0.524666 8.39,0.15 4.07585,1.175034 7.90928,3.068046 11.32,5.59 1.10505,0.825183 0.69648,2.57092 -0.66,2.82 -4.43725,0.842245 -8.57537,2.835438 -12,5.78 -1.83451,1.524474 -4.28024,2.095144 -6.6,1.54 -1.47454,-0.349597 -2.98458,-0.527446 -4.5,-0.53 -4.25468,-0.0051 -8.39079,1.401778 -11.76,4 -0.94656,0.69738 -2.2348,-0.215974 -1.89,-1.34 C 154.45,70.5 160.83,63.54 169,62 Z m -46.82,1 c 5.79865,2.140061 10.94528,5.743392 14.94,10.46 0.77397,0.898696 2.16603,0.898696 2.94,0 3.99657,-4.714583 9.14262,-8.317511 14.94,-10.46 1.13333,-0.713333 2.20333,0.986667 1.07,1.7 -2.39016,2.36309 -4.38553,5.094495 -5.91,8.09 -3.65311,7.412151 -5.24211,15.6715 -4.6,23.91 0.0727,1.121177 -1.015,1.957907 -2.08,1.6 -3.17151,-1.053212 -6.59849,-1.053212 -9.77,0 -1.065,0.357907 -2.15275,-0.478823 -2.08,-1.6 0.63901,-8.239408 -0.95345,-16.498803 -4.61,-23.91 -1.52098,-2.995074 -3.513,-5.726505 -5.9,-8.09 -1.13333,-0.733333 -0.0333,-2.433333 1.1,-1.7 z m -33.67,4.77 c 3.410718,-2.521954 7.244151,-4.414966 11.32,-5.59 2.75373,-0.676175 5.62389,-0.727428 8.4,-0.15 8.21,1.51 14.58,8.47 17.66,18 0.37617,1.134345 -0.93394,2.077066 -1.89,1.36 -3.36921,-2.598222 -7.50532,-4.005061 -11.76,-4 -1.51545,0.002 -3.02555,0.179872 -4.5,0.53 -2.31976,0.555144 -4.76549,-0.01553 -6.6,-1.54 -3.425667,-2.942983 -7.563341,-4.935963 -12,-5.78 -1.357935,-0.261192 -1.7489,-2.017428 -0.63,-2.83 z M 73.88,98.25 v -1.54 c -0.0105,-7.286449 2.208853,-14.401642 6.36,-20.39 0.905969,-1.294267 2.353055,-2.10434 3.93,-2.2 v 0 c 5.098948,-0.20471 10.090935,1.499697 14,4.78 1.363005,1.056694 1.503069,3.064278 0.3,4.3 -1.825837,1.863644 -3.254648,4.078301 -4.2,6.51 -0.582638,1.494149 -1.894085,2.582612 -3.47,2.88 -5.275827,0.854254 -10.19846,3.195887 -14.19,6.75 -0.993948,0.99252 -2.692966,0.314156 -2.73,-1.09 z m 2.91,12.68 c -1.101993,-2.51772 -0.628715,-5.44735 1.21,-7.49 3.303131,-3.52193 7.630908,-5.914977 12.37,-6.84 0.517758,-0.111385 1.058376,-0.02958 1.52,0.23 v 0 c 0.622528,0.334867 1.038372,0.95676 1.11,1.66 0.260074,2.89177 1.17668,5.68605 2.68,8.17 1.20982,1.97837 1.427981,4.40773 0.59,6.57 -1.704549,4.06319 -2.391102,8.48115 -2,12.87 0.147159,1.3975 -1.352785,2.37217 -2.57,1.67 -6.634256,-3.88505 -11.857146,-9.78401 -14.91,-16.84 z m 30.09,85.21 c -0.57,-0.72 -1.13,-1.45 -1.68,-2.2 -10.615395,-14.27397 -16.323419,-31.60152 -16.27,-49.39 -0.0012,-3.60871 0.239346,-7.21344 0.72,-10.79 0.148443,-1.19947 1.439193,-1.89094 2.52,-1.35 h 0.06 c 2.271135,1.11108 3.654486,3.47578 3.51,6 -0.13,2.15 -0.21,4.35 -0.21,6.11 -0.04026,17.67644 4.372112,35.07833 12.83,50.6 0.68,0.98667 -0.8,2.00667 -1.48,1.02 z m 30.83,61.58 -1,2.55 -0.71,1.82 v 0 c -0.33911,0.85887 -1.16662,1.42506 -2.09,1.43 h -9.14 c -0.3312,0.001 -0.5598,-0.33123 -0.44,-0.64 l 1.1,-2.84 c 0.18023,-0.49941 -0.0613,-1.0526 -0.55,-1.26 -1.48562,-0.5785 -3.15909,0.15532 -3.74,1.64 l -0.66,1.68 v 0 c -0.30411,0.84221 -1.10457,1.40254 -2,1.4 h -4.26 c -0.57089,0.006 -0.96413,-0.57076 -0.75,-1.1 l 1.27,-3.26 c 0.93024,-2.41872 3.25859,-4.01075 5.85,-4 h 3.85 c 4.40473,0.0356 8.51388,-2.21191 10.86,-5.94 3.01731,-4.85188 5.62629,-9.94607 7.8,-15.23 0.24962,-0.52022 0.8865,-0.72182 1.39,-0.44 1.87,1.18 3.8,2.31 5.76,3.38 1.17264,0.66204 1.61391,2.13147 1,3.33 -1.76147,3.39697 -3.71808,6.68914 -5.86,9.86 -0.63134,0.92192 -1.50758,1.64924 -2.53,2.1 -2.36254,1.1094 -4.20691,3.08628 -5.15,5.52 z M 163,235.64 c 0.7754,0.44588 1.07265,1.41634 0.68,2.22 -1.53064,3.18478 -3.22971,6.28583 -5.09,9.29 -1.6458,2.59633 -4.51611,4.15817 -7.59,4.13 -0.71999,-0.007 -1.15352,-0.80062 -0.77,-1.41 3.08538,-4.88731 5.76117,-10.02149 8,-15.35 0.30913,-0.736 1.20577,-1.01739 1.88,-0.59 0.97333,0.58 1.93667,1.15 2.89,1.71 z m -2.48,-6.91 c 0.38,-1.08 0.74,-2.16 1.08,-3.25 0.16923,-0.55399 0.85286,-0.75007 1.29,-0.37 1.33333,1.12 2.70333,2.21333 4.11,3.28 0.32223,0.24444 0.44445,0.67222 0.3,1.05 -0.33,0.9 -0.67,1.79 -1,2.68 -0.17142,0.3817 -0.62796,0.54149 -1,0.35 -1.48,-0.85333 -2.92333,-1.73 -4.33,-2.63 -0.37571,-0.23223 -0.55456,-0.68343 -0.44,-1.11 z m 18,10 c -0.91333,1.84667 -1.88667,3.67333 -2.92,5.48 -1.59,2.73 -3.29,5.38 -5.06,7.87 l -1.6,2.32 c -0.20474,0.30809 0.0102,0.72099 0.38,0.73 h 2.86 c 2.03138,-5e-5 3.80855,1.36669 4.33,3.33 l 0.89,3.4 c 0.11111,0.40596 0.022,0.84057 -0.24,1.17 -0.25601,0.33742 -0.65647,0.53395 -1.08,0.53 h -1.94 c -1.02144,0.009 -2.0366,-0.16048 -3,-0.5 -0.80482,-0.2798 -1.56833,-0.6666 -2.27,-1.15 -0.27739,-0.19466 -0.58978,-0.33388 -0.92,-0.41 -0.737,-0.18824 -1.51871,-0.073 -2.17,0.32 l -0.75,0.44 c -1.06442,0.61358 -2.24084,1.00798 -3.46,1.16 l -0.45,0.06 c -0.44818,0.0516 -0.89887,0.0783 -1.35,0.08 H 152 c -0.69059,-0.0115 -1.16184,-0.70304 -0.92,-1.35 l 0.89,-2.27 c 0.17029,-0.45002 -0.0524,-0.95337 -0.5,-1.13 -1.53518,-0.59372 -3.26206,0.16039 -3.87,1.69 l -0.45,1.19 c -0.41351,1.12037 -1.48581,1.86057 -2.68,1.85 h -4 c -0.20905,-0.001 -0.40386,-0.10617 -0.52,-0.28 -0.12554,-0.17395 -0.15558,-0.39923 -0.08,-0.6 l 1.63,-4.19 c 0.78393,-2.01044 2.72213,-3.33302 4.88,-3.33 H 151 c 4.40473,0.0356 8.51388,-2.21191 10.86,-5.94 3.37141,-5.43609 6.23676,-11.17014 8.56,-17.13 0.18154,-0.48142 0.76749,-0.6636 1.19,-0.37 1.91333,1.29333 3.87333,2.53 5.88,3.71 1.16725,0.66549 1.61429,2.12493 1.02,3.33 z m 1.8,-6.16 c -3.20279,-1.83599 -6.30706,-3.83874 -9.3,-6 -3.03738,-2.22342 -5.95168,-4.61027 -8.73,-7.15 -7.19965,-6.54923 -13.41999,-14.09986 -18.47,-22.42 -0.28582,-0.43852 -0.86144,-0.58242 -1.32,-0.33 -1.40821,0.80784 -1.86238,2.62451 -1,4 3.86906,6.11049 8.35597,11.80709 13.39,17 2.42801,2.51411 3.22569,6.18498 2.06,9.48 -0.77,2.21 -1.62,4.38 -2.55,6.53 -0.2031,0.47206 -0.76579,0.67039 -1.22,0.43 -33.22401,-17.49174 -53.969315,-52.00301 -53.83,-89.55 0,-1.69 0.09,-3.87 0.21,-6 0.101086,-1.68138 1.63949,-2.90278 3.3,-2.62 2.27221,0.39329 4.574,0.59068 6.88,0.59 H 124 c 0.59435,0.006 1.08367,-0.46585 1.1,-1.06 0.0167,-1.53601 -1.2239,-2.79009 -2.76,-2.79 h -12.6 c -1.8078,8e-4 -3.61304,-0.13627 -5.4,-0.41 -3.27946,-0.48637 -5.827359,-3.10801 -6.22,-6.4 -0.349994,-3.57516 0.146743,-7.1825 1.45,-10.53 0.55294,-1.51396 2.31453,-2.19222 3.74,-1.44 5.57374,2.89252 12.20626,2.89252 17.78,0 0.44071,-0.23467 0.96929,-0.23467 1.41,0 v 0 c 0.41367,0.23488 0.69456,0.64882 0.76,1.12 0.21278,1.63512 0.69604,3.22345 1.43,4.7 l 9.72,20.28 c 1.69423,3.55613 6.75577,3.55613 8.45,0 l 9.63,-20.25 c 0.7251,-1.48005 1.2079,-3.06691 1.43,-4.7 0.0462,-0.38763 0.23515,-0.74415 0.53,-1 0.46371,-0.37897 1.10841,-0.4458 1.64,-0.17 5.58449,2.90637 12.23551,2.90637 17.82,0 1.42872,-0.74485 3.18701,-0.0697 3.75,1.44 1.27489,3.28525 1.77783,6.81952 1.47,10.33 -0.33768,3.36639 -2.90698,6.07958 -6.25,6.6 -1.78365,0.27334 -3.58553,0.4104 -5.39,0.41 h -12.6 c -1.53846,-0.006 -2.78239,1.25169 -2.76,2.79 0.0109,0.59651 0.50349,1.07115 1.1,1.06 h 0.61 c 0.93001,0.004 1.66355,0.79216 1.6,1.72 -0.14,2.09 -0.22,4.2 -0.22,6.34 2.4e-4,25.22108 9.05633,49.6037 25.52,68.71 0.33,0.39 0.66,0.76 1,1.14 2.66079,2.95656 3.53801,7.11 2.3,10.89 -0.77333,2.33333 -1.62333,4.63 -2.55,6.89 -0.19552,0.4596 -0.75302,0.63914 -1.18,0.38 z m 30.84,10.49 c -0.22,0.39 -0.43,0.77 -0.66,1.15 -1.2,2.07 -2.47,4.09 -3.77,6 -0.29738,0.43098 -0.83661,0.62414 -1.34,0.48 -7.95435,-2.38483 -15.71383,-5.37696 -23.21,-8.95 -0.36012,-0.19083 -0.50917,-0.62922 -0.34,-1 2.46758,-4.93415 4.5472,-10.05295 6.22,-15.31 0.51618,-1.61984 2.51521,-2.19174 3.81,-1.09 5.39113,4.63913 11.23366,8.72622 17.44,12.2 2.31,1.29614 3.13345,4.21849 1.84,6.53 z m 29.38,0.93 c -47.35928,-9.53927 -81.4301,-51.13956 -81.45,-99.45 0,-1.78 0.06,-3.55 0.16,-5.31 0.095,-1.54365 1.37343,-2.74764 2.92,-2.75 h 5 c 9.11752,0.0235 17.97463,-3.03931 25.13,-8.69 1.5741,-1.24286 3.77288,-1.3198 5.43,-0.19 11.53,7.83 20.72,20.08 25.56,34.31 4.27193,12.76803 7.5976,25.83337 9.95,39.09 0.10004,0.52326 -0.44568,0.93255 -0.92,0.69 -7.67127,-3.80227 -14.50777,-9.09538 -20.11,-15.57 -6.35891,-7.38649 -10.93657,-16.13466 -13.38,-25.57 -0.36296,-1.35354 -1.717,-2.1905 -3.09,-1.91 v 0 c -0.71133,0.1345 -1.16651,0.83548 -1,1.54 2.49086,10.51464 7.47437,20.27586 14.53,28.46 5.9029,6.82199 13.10224,12.40334 21.18,16.42 2.42265,1.20716 4.12142,3.50068 4.57,6.17 0.27,1.57 0.53,3.13 0.78,4.66 0.39,2.34 0.77,4.61 1.15,6.83 0.0811,0.47084 -0.3636,0.86131 -0.82,0.72 -25.00259,-7.73191 -44.86828,-26.84467 -53.56,-51.53 -0.477,-1.32632 -1.91479,-2.0408 -3.26,-1.62 -0.67531,0.21913 -1.04325,0.94604 -0.82,1.62 8.61139,25.77069 28.83773,45.99333 54.61,54.6 2.93283,0.97189 5.1246,3.43429 5.75,6.46 0.72,3.54 1.49,7 2.39,10.23 0.13253,0.44729 -0.25013,0.87846 -0.71,0.8 z"
           transform="translate(-69.99,-56.92)"
           id="path1-2"
           style="fill:#231f20"
           sodipodi:nodetypes="ccccccsccsccssccccccccccccccccccccccssccsscccccccccccccccssccccccccsscccccscscscccscccccccccccccccccccccccccccccccccccccccsscccccccccsscccccccccccccccccccscccccccscccccccccccccccccccccccccccccccccccccccccccccccccccccccccccccccccccccccccccccccccccccccccccccssccccccccccccccccccccccccccccccccccccccccccccccccssccccccccccccccc" /><path
           class="cls-1"
           d="m 113.36,104.49 a 10.16,10.16 0 0 1 -6.86,-16.29 0.54,0.54 0 0 0 -0.74,-0.75 11.3,11.3 0 1 0 15.74,15.74 0.54,0.54 0 0 0 -0.76,-0.74 10.17,10.17 0 0 1 -7.38,2.04 z"
           transform="translate(-69.99,-56.92)"
           id="path2-8"
           style="fill:#231f20" /><path
           class="cls-1"
           d="m 166.15,104.49 a 10.16,10.16 0 0 1 -6.86,-16.29 0.54,0.54 0 0 0 -0.74,-0.75 11.3,11.3 0 1 0 15.74,15.74 0.54,0.54 0 0 0 -0.76,-0.74 10.17,10.17 0 0 1 -7.38,2.04 z"
           transform="translate(-69.99,-56.92)"
           id="path3-9"
           style="fill:#231f20" /></g><g
         id="g19"
         style="display:none"><path
           style="fill:#ff0000;fill-opacity:1;stroke:#ff0000;stroke-width:5;stroke-dasharray:none"
           d="M 1317.1677,342.61722 V 490.13265 Z"
           id="path17" /><path
           style="fill:#ff0000;fill-opacity:1;stroke:#ff0000;stroke-width:5;stroke-dasharray:none"
           d="m 1317.1677,342.61722 -38.1798,142.48897 z"
           id="path17-9" /><path
           style="fill:#ff0000;fill-opacity:1;stroke:#ff0000;stroke-width:5;stroke-dasharray:none"
           d="m 1317.1677,342.61722 -73.7578,127.75211 z"
           id="path17-6" /><path
           style="fill:#ff0000;fill-opacity:1;stroke:#ff0000;stroke-width:5;stroke-dasharray:none"
           d="M 1317.1677,342.61722 1212.8585,446.92639 Z"
           id="path17-8" /><path
           style="fill:#ff0000;fill-opacity:1;stroke:#ff0000;stroke-width:5;stroke-dasharray:none"
           d="m 1317.1677,342.61722 -127.7522,73.75771 z"
           id="path17-3" /><path
           style="fill:#ff0000;fill-opacity:1;stroke:#ff0000;stroke-width:5;stroke-dasharray:none"
           d="m 1317.1677,342.61722 -142.489,38.17981 z"
           id="path17-4" /><path
           style="fill:#ff0000;fill-opacity:1;stroke:#ff0000;stroke-width:5;stroke-dasharray:none"
           d="M 1317.1677,342.61722 H 1169.6523 Z"
           id="path17-7" /><path
           style="fill:#ff0000;fill-opacity:1;stroke:#ff0000;stroke-width:5;stroke-dasharray:none"
           d="M 1317.1677,342.61722 V 195.10179 Z"
           id="path17-78" /><path
           style="fill:#ff0000;fill-opacity:1;stroke:#ff0000;stroke-width:5;stroke-dasharray:none"
           d="M 1317.1677,342.61722 1278.9879,200.12825 Z"
           id="path17-9-5" /><path
           style="fill:#ff0000;fill-opacity:1;stroke:#ff0000;stroke-width:5;stroke-dasharray:none"
           d="M 1317.1677,342.61722 1243.4099,214.86511 Z"
           id="path17-6-7" /><path
           style="fill:#ff0000;fill-opacity:1;stroke:#ff0000;stroke-width:5;stroke-dasharray:none"
           d="M 1317.1677,342.61722 1212.8585,238.30805 Z"
           id="path17-8-4" /><path
           style="fill:#ff0000;fill-opacity:1;stroke:#ff0000;stroke-width:5;stroke-dasharray:none"
           d="M 1317.1677,342.61722 1189.4155,268.85951 Z"
           id="path17-3-1" /><path
           style="fill:#ff0000;fill-opacity:1;stroke:#ff0000;stroke-width:5;stroke-dasharray:none"
           d="m 1317.1677,342.61722 -142.489,-38.17981 z"
           id="path17-4-8" /><path
           style="fill:#ff0000;fill-opacity:1;stroke:#ff0000;stroke-width:5;stroke-dasharray:none"
           d="M 1317.1677,342.61722 H 1169.6523 Z"
           id="path17-7-5" /><path
           style="fill:#ff0000;fill-opacity:1;stroke:#ff0000;stroke-width:5;stroke-dasharray:none"
           d="M 1317.1677,342.61722 V 195.10179 Z"
           id="path17-83" /><path
           style="fill:#ff0000;fill-opacity:1;stroke:#ff0000;stroke-width:5;stroke-dasharray:none"
           d="m 1317.1677,342.61722 38.1798,-142.48897 z"
           id="path17-9-1" /><path
           style="fill:#ff0000;fill-opacity:1;stroke:#ff0000;stroke-width:5;stroke-dasharray:none"
           d="m 1317.1677,342.61722 73.7578,-127.75211 z"
           id="path17-6-8" /><path
           style="fill:#ff0000;fill-opacity:1;stroke:#ff0000;stroke-width:5;stroke-dasharray:none"
           d="M 1317.1677,342.61722 1421.4769,238.30805 Z"
           id="path17-8-9" /><path
           style="fill:#ff0000;fill-opacity:1;stroke:#ff0000;stroke-width:5;stroke-dasharray:none"
           d="m 1317.1677,342.61722 127.7522,-73.75771 z"
           id="path17-3-6" /><path
           style="fill:#ff0000;fill-opacity:1;stroke:#ff0000;stroke-width:5;stroke-dasharray:none"
           d="m 1317.1677,342.61722 142.489,-38.17981 z"
           id="path17-4-4" /><path
           style="fill:#ff0000;fill-opacity:1;stroke:#ff0000;stroke-width:5;stroke-dasharray:none"
           d="m 1317.1677,342.61722 h 147.5154 z"
           id="path17-7-3" /><path
           style="fill:#ff0000;fill-opacity:1;stroke:#ff0000;stroke-width:5;stroke-dasharray:none"
           d="M 1317.1677,342.61722 V 490.13265 Z"
           id="path17-48" /><path
           style="fill:#ff0000;fill-opacity:1;stroke:#ff0000;stroke-width:5;stroke-dasharray:none"
           d="m 1317.1677,342.61722 38.1798,142.48897 z"
           id="path17-9-8" /><path
           style="fill:#ff0000;fill-opacity:1;stroke:#ff0000;stroke-width:5;stroke-dasharray:none"
           d="m 1317.1677,342.61722 73.7578,127.75211 z"
           id="path17-6-89" /><path
           style="fill:#ff0000;fill-opacity:1;stroke:#ff0000;stroke-width:5;stroke-dasharray:none"
           d="m 1317.1677,342.61722 104.3092,104.30917 z"
           id="path17-8-7" /><path
           style="fill:#ff0000;fill-opacity:1;stroke:#ff0000;stroke-width:5;stroke-dasharray:none"
           d="m 1317.1677,342.61722 127.7522,73.75771 z"
           id="path17-3-7" /><path
           style="fill:#ff0000;fill-opacity:1;stroke:#ff0000;stroke-width:5;stroke-dasharray:none"
           d="m 1317.1677,342.61722 142.489,38.17981 z"
           id="path17-4-6" /><path
           style="fill:#ff0000;fill-opacity:1;stroke:#ff0000;stroke-width:5;stroke-dasharray:none"
           d="m 1317.1677,342.61722 h 147.5154 z"
           id="path17-7-4" /></g><g
         id="g18"
         transform="translate(-2.5001627,2.499993)"
         style="display:none"><path
           style="fill:#ff0000;fill-opacity:1;stroke:#ff0000;stroke-width:5;stroke-dasharray:none"
           d="M 1707.1309,340.11723 V 487.63266 Z"
           id="path17-46" /><path
           style="fill:#ff0000;fill-opacity:1;stroke:#ff0000;stroke-width:5;stroke-dasharray:none"
           d="M 1707.1309,340.11723 1668.9511,482.6062 Z"
           id="path17-9-2" /><path
           style="fill:#ff0000;fill-opacity:1;stroke:#ff0000;stroke-width:5;stroke-dasharray:none"
           d="m 1707.1309,340.11723 -73.7578,127.75211 z"
           id="path17-6-5" /><path
           style="fill:#ff0000;fill-opacity:1;stroke:#ff0000;stroke-width:5;stroke-dasharray:none"
           d="M 1707.1309,340.11723 1602.8217,444.4264 Z"
           id="path17-8-8" /><path
           style="fill:#ff0000;fill-opacity:1;stroke:#ff0000;stroke-width:5;stroke-dasharray:none"
           d="m 1707.1309,340.11723 -127.7522,73.75771 z"
           id="path17-3-62" /><path
           style="fill:#ff0000;fill-opacity:1;stroke:#ff0000;stroke-width:5;stroke-dasharray:none"
           d="m 1707.1309,340.11723 -142.489,38.17981 z"
           id="path17-4-84" /><path
           style="fill:#ff0000;fill-opacity:1;stroke:#ff0000;stroke-width:5;stroke-dasharray:none"
           d="M 1707.1309,340.11723 H 1559.6155 Z"
           id="path17-7-7" /><path
           style="fill:#ff0000;fill-opacity:1;stroke:#ff0000;stroke-width:5;stroke-dasharray:none"
           d="M 1707.1309,340.11723 V 192.6018 Z"
           id="path17-78-4" /><path
           style="fill:#ff0000;fill-opacity:1;stroke:#ff0000;stroke-width:5;stroke-dasharray:none"
           d="M 1707.1309,340.11723 1668.9511,197.62826 Z"
           id="path17-9-5-0" /><path
           style="fill:#ff0000;fill-opacity:1;stroke:#ff0000;stroke-width:5;stroke-dasharray:none"
           d="M 1707.1309,340.11723 1633.3731,212.36512 Z"
           id="path17-6-7-6" /><path
           style="fill:#ff0000;fill-opacity:1;stroke:#ff0000;stroke-width:5;stroke-dasharray:none"
           d="M 1707.1309,340.11723 1602.8217,235.80806 Z"
           id="path17-8-4-2" /><path
           style="fill:#ff0000;fill-opacity:1;stroke:#ff0000;stroke-width:5;stroke-dasharray:none"
           d="M 1707.1309,340.11723 1579.3787,266.35952 Z"
           id="path17-3-1-9" /><path
           style="fill:#ff0000;fill-opacity:1;stroke:#ff0000;stroke-width:5;stroke-dasharray:none"
           d="m 1707.1309,340.11723 -142.489,-38.17981 z"
           id="path17-4-8-9" /><path
           style="fill:#ff0000;fill-opacity:1;stroke:#ff0000;stroke-width:5;stroke-dasharray:none"
           d="M 1707.1309,340.11723 H 1559.6155 Z"
           id="path17-7-5-0" /><path
           style="fill:#ff0000;fill-opacity:1;stroke:#ff0000;stroke-width:5;stroke-dasharray:none"
           d="M 1707.1307,340.11722 V 192.60179 Z"
           id="path17-83-1" /><path
           style="fill:#ff0000;fill-opacity:1;stroke:#ff0000;stroke-width:5;stroke-dasharray:none"
           d="m 1707.1307,340.11722 38.1798,-142.48897 z"
           id="path17-9-1-3" /><path
           style="fill:#ff0000;fill-opacity:1;stroke:#ff0000;stroke-width:5;stroke-dasharray:none"
           d="m 1707.1307,340.11722 73.7578,-127.75211 z"
           id="path17-6-8-1" /><path
           style="fill:#ff0000;fill-opacity:1;stroke:#ff0000;stroke-width:5;stroke-dasharray:none"
           d="M 1707.1307,340.11722 1811.4399,235.80805 Z"
           id="path17-8-9-1" /><path
           style="fill:#ff0000;fill-opacity:1;stroke:#ff0000;stroke-width:5;stroke-dasharray:none"
           d="m 1707.1307,340.11722 127.7522,-73.75771 z"
           id="path17-3-6-0" /><path
           style="fill:#ff0000;fill-opacity:1;stroke:#ff0000;stroke-width:5;stroke-dasharray:none"
           d="m 1707.1307,340.11722 142.489,-38.17981 z"
           id="path17-4-4-3" /><path
           style="fill:#ff0000;fill-opacity:1;stroke:#ff0000;stroke-width:5;stroke-dasharray:none"
           d="m 1707.1307,340.11722 h 147.5154 z"
           id="path17-7-3-4" /><path
           style="fill:#ff0000;fill-opacity:1;stroke:#ff0000;stroke-width:5;stroke-dasharray:none"
           d="M 1707.1309,340.11723 V 487.63266 Z"
           id="path17-48-3" /><path
           style="fill:#ff0000;fill-opacity:1;stroke:#ff0000;stroke-width:5;stroke-dasharray:none"
           d="m 1707.1309,340.11723 38.1798,142.48897 z"
           id="path17-9-8-9" /><path
           style="fill:#ff0000;fill-opacity:1;stroke:#ff0000;stroke-width:5;stroke-dasharray:none"
           d="m 1707.1309,340.11723 73.7578,127.75211 z"
           id="path17-6-89-1" /><path
           style="fill:#ff0000;fill-opacity:1;stroke:#ff0000;stroke-width:5;stroke-dasharray:none"
           d="M 1707.1309,340.11723 1811.4401,444.4264 Z"
           id="path17-8-7-9" /><path
           style="fill:#ff0000;fill-opacity:1;stroke:#ff0000;stroke-width:5;stroke-dasharray:none"
           d="m 1707.1309,340.11723 127.7522,73.75771 z"
           id="path17-3-7-6" /><path
           style="fill:#ff0000;fill-opacity:1;stroke:#ff0000;stroke-width:5;stroke-dasharray:none"
           d="m 1707.1309,340.11723 142.489,38.17981 z"
           id="path17-4-6-9" /><path
           style="fill:#ff0000;fill-opacity:1;stroke:#ff0000;stroke-width:5;stroke-dasharray:none"
           d="m 1707.1309,340.11723 h 147.5154 z"
           id="path17-7-4-3" /></g></g><g
       id="g3"
       transform="matrix(1.2033349,0,0,1.2033349,-390.40304,-130.74473)"><path
         style="fill:none;stroke:#009de7;stroke-width:18.7601;stroke-linecap:round;stroke-dasharray:none;stroke-opacity:1"
         id="path5"
         sodipodi:type="arc"
         sodipodi:cx="1721.8422"
         sodipodi:cy="585.77527"
         sodipodi:rx="260.64108"
         sodipodi:ry="259.09177"
         sodipodi:start="1.5707963"
         sodipodi:end="5.5594909"
         sodipodi:arc-type="arc"
         d="m 1721.8422,844.86703 a 260.64108,259.09177 0 0 1 -253.0941,-197.19509 260.64108,259.09177 0 0 1 132.1664,-291.41438 260.64108,259.09177 0 0 1 316.2429,57.95812"
         sodipodi:open="true" /><path
         style="fill:none;stroke:#009de7;stroke-width:18.7601;stroke-linecap:round;stroke-dasharray:none;stroke-opacity:1"
         id="path5-6"
         sodipodi:type="arc"
         sodipodi:cx="-2117.5386"
         sodipodi:cy="586.16321"
         sodipodi:rx="260.64108"
         sodipodi:ry="259.09177"
         sodipodi:start="1.5707963"
         sodipodi:end="5.5594909"
         sodipodi:arc-type="arc"
         d="m -2117.5386,845.25497 a 260.64108,259.09177 0 0 1 -253.0941,-197.19509 260.64108,259.09177 0 0 1 132.1665,-291.41438 260.64108,259.09177 0 0 1 316.2428,57.95811"
         sodipodi:open="true"
         transform="scale(-1,1)" /><path
         style="fill:none;stroke:#009de7;stroke-width:18.7601;stroke-linecap:round;stroke-dasharray:none;stroke-opacity:1"
         d="M 1814.281,844.86705 H 1710.3727 1814.281"
         id="path6" /><path
         style="fill:none;stroke:#009de7;stroke-width:18.7601;stroke-linecap:round;stroke-dasharray:none;stroke-opacity:1"
         d="M 2025.5115,845.25498 H 2129.008 2025.5115"
         id="path7" /><circle
         style="fill:none;stroke:#009de7;stroke-width:18.7601;stroke-linecap:round;stroke-dasharray:none;stroke-opacity:1"
         id="path8"
         cx="1738.5394"
         cy="585.32812"
         r="117.48319" /><circle
         style="fill:none;stroke:#009de7;stroke-width:18.7601;stroke-linecap:round;stroke-dasharray:none;stroke-opacity:1"
         id="path8-1"
         cx="2101.9824"
         cy="585.32812"
         r="117.48319" /><path
         d="m 1920.3064,604.42712 c 49.319,0 89.3119,39.95833 89.3545,89.27734 -0.053,13.56407 -3.2247,26.93432 -9.2677,39.07805 L 1929.96,880.90866 c -3.9069,8.23974 -15.6321,8.23974 -19.5391,0 L 1840.0648,732.937 v 0 c -6.0616,-12.21333 -9.1823,-25.67516 -9.113,-39.30983 0.084,-49.28872 40.0656,-89.20005 89.3546,-89.20005 z"
         style="fill:none;stroke:#009de7;stroke-width:18.7601;stroke-dasharray:none;stroke-opacity:1"
         id="path1-29"
         sodipodi:nodetypes="ccccccscc" /><path
         style="fill:none;stroke:#009de7;stroke-width:18.7601;stroke-linecap:round;stroke-dasharray:none;stroke-opacity:1"
         d="m 2304.0004,767.88537 c 0,0 226.9486,577.90293 -378.8336,917.74443"
         id="path10-3"
         sodipodi:nodetypes="cc" /><path
         style="fill:none;stroke:#009de7;stroke-width:18.7601;stroke-linecap:round;stroke-dasharray:none;stroke-opacity:1"
         d="m 1540.9138,774.84816 c 0,0 -221.5291,570.94024 384.253,910.78164"
         id="path10-3-3"
         sodipodi:nodetypes="cc" /><path
         style="fill:none;stroke:#009de7;stroke-width:18.7601;stroke-dasharray:none;stroke-opacity:1"
         d="m 1633.2967,1435.8527 c 0,0 -352.1091,-311.9291 -124.1779,-700.36546"
         id="path9"
         sodipodi:nodetypes="cc" /><path
         style="fill:none;stroke:#009de7;stroke-width:18.7601;stroke-dasharray:none;stroke-opacity:1"
         d="m 2211.5134,1440.7575 c 0,0 346.4272,-316.8339 118.4959,-705.27027"
         id="path9-1"
         sodipodi:nodetypes="cc" /><path
         style="fill:#009de7;fill-opacity:1;stroke:#009de7;stroke-width:0;stroke-dasharray:none;stroke-opacity:1"
         d="M 1738.5393,823.97971 V 723.69864 l 9.2824,100.28107 h -18.5647 l 9.2823,-100.28107"
         id="path11"
         inkscape:tile-cx="1331.5052"
         inkscape:tile-cy="543.58697"
         inkscape:tile-w="19.791601"
         inkscape:tile-h="106.90864"
         inkscape:tile-x0="1321.6094"
         inkscape:tile-y0="490.13265" /><path
         style="fill:#009de7;fill-opacity:1;stroke:#009de7;stroke-width:0;stroke-dasharray:none;stroke-opacity:1"
         d="M 2101.9824,823.97971 V 723.69864 l 9.2824,100.28107 h -18.5647 l 9.2823,-100.28107"
         id="path11-7"
         inkscape:tile-cx="1331.5052"
         inkscape:tile-cy="543.58697"
         inkscape:tile-w="19.791601"
         inkscape:tile-h="106.90864"
         inkscape:tile-x0="1321.6094"
         inkscape:tile-y0="490.13265" /><path
         style="fill:#009de7;fill-opacity:1;stroke:#009de7;stroke-width:0;stroke-dasharray:none;stroke-opacity:1"
         d="m 1531.8609,704.65391 86.846,-50.14054 -82.2048,58.17928 -9.2824,-16.07747 91.4872,-42.10181"
         id="path11-9"
         inkscape:tile-cx="1331.5052"
         inkscape:tile-cy="543.58697"
         inkscape:tile-w="19.791601"
         inkscape:tile-h="106.90864"
         inkscape:tile-x0="1321.6094"
         inkscape:tile-y0="490.13265" /><path
         style="fill:#009de7;fill-opacity:1;stroke:#009de7;stroke-width:0;stroke-dasharray:none;stroke-opacity:1"
         d="m 1619.2134,792.00646 50.1406,-86.84596 -42.1018,91.48713 -16.0775,-9.28233 58.1793,-82.2048"
         id="path11-5"
         inkscape:tile-cx="1331.5052"
         inkscape:tile-cy="543.58697"
         inkscape:tile-w="19.791601"
         inkscape:tile-h="106.90864"
         inkscape:tile-x0="1321.6094"
         inkscape:tile-y0="490.13265" /><path
         style="fill:#009de7;fill-opacity:1;stroke:#009de7;stroke-width:0;stroke-dasharray:none;stroke-opacity:1"
         d="m 1499.8878,585.32811 h 100.281 l -100.281,9.28233 v -18.56466 l 100.281,9.28233"
         id="path11-2"
         inkscape:tile-cx="1331.5052"
         inkscape:tile-cy="543.58697"
         inkscape:tile-w="19.791601"
         inkscape:tile-h="106.90864"
         inkscape:tile-x0="1321.6094"
         inkscape:tile-y0="490.13265" /><path
         style="fill:#009de7;fill-opacity:1;stroke:#009de7;stroke-width:0;stroke-dasharray:none;stroke-opacity:1"
         d="m 1531.8609,466.00233 86.846,50.14052 -91.4872,-42.10179 9.2824,-16.07746 82.2048,58.17925"
         id="path11-2-8"
         inkscape:tile-cx="1331.5052"
         inkscape:tile-cy="543.58697"
         inkscape:tile-w="19.791601"
         inkscape:tile-h="106.90864"
         inkscape:tile-x0="1321.6094"
         inkscape:tile-y0="490.13265" /><path
         style="fill:#009de7;fill-opacity:1;stroke:#009de7;stroke-width:0;stroke-dasharray:none;stroke-opacity:1"
         d="m 1619.2135,378.64979 50.1405,86.84592 -58.1792,-82.20475 16.0775,-9.28233 42.1017,91.48708"
         id="path11-2-0"
         inkscape:tile-cx="1331.5052"
         inkscape:tile-cy="543.58697"
         inkscape:tile-w="19.791601"
         inkscape:tile-h="106.90864"
         inkscape:tile-x0="1321.6094"
         inkscape:tile-y0="490.13265" /><path
         style="fill:#009de7;fill-opacity:1;stroke:#009de7;stroke-width:0;stroke-dasharray:none;stroke-opacity:1"
         d="m 1738.5393,346.67654 v 100.28104 l -9.2823,-100.28104 h 18.5647 l -9.2824,100.28104"
         id="path11-2-1"
         inkscape:tile-cx="1331.5052"
         inkscape:tile-cy="543.58697"
         inkscape:tile-w="19.791601"
         inkscape:tile-h="106.90864"
         inkscape:tile-x0="1321.6094"
         inkscape:tile-y0="490.13265" /><path
         style="fill:#009de7;fill-opacity:1;stroke:#009de7;stroke-width:0;stroke-dasharray:none;stroke-opacity:1"
         d="m 1857.8653,378.64979 -50.1406,86.84592 42.1019,-91.48708 16.0774,9.28233 -58.1793,82.20475"
         id="path11-2-1-6"
         inkscape:tile-cx="1331.5052"
         inkscape:tile-cy="543.58697"
         inkscape:tile-w="19.791601"
         inkscape:tile-h="106.90864"
         inkscape:tile-x0="1321.6094"
         inkscape:tile-y0="490.13265" /><path
         style="fill:#009de7;fill-opacity:1;stroke:#009de7;stroke-width:0;stroke-dasharray:none;stroke-opacity:1"
         d="m 2221.3084,792.00646 -50.1406,-86.84596 58.1793,82.2048 -16.0775,9.28233 -42.1018,-91.48713"
         id="path11-1"
         inkscape:tile-cx="1331.5052"
         inkscape:tile-cy="543.58697"
         inkscape:tile-w="19.791601"
         inkscape:tile-h="106.90864"
         inkscape:tile-x0="1321.6094"
         inkscape:tile-y0="490.13265" /><path
         style="fill:#009de7;fill-opacity:1;stroke:#009de7;stroke-width:0;stroke-dasharray:none;stroke-opacity:1"
         d="m 2308.6609,704.65391 -86.846,-50.14054 91.4871,42.1018 -9.2823,16.07747 -82.2048,-58.17927"
         id="path11-4"
         inkscape:tile-cx="1331.5052"
         inkscape:tile-cy="543.58697"
         inkscape:tile-w="19.791601"
         inkscape:tile-h="106.90864"
         inkscape:tile-x0="1321.6094"
         inkscape:tile-y0="490.13265" /><path
         style="fill:#009de7;fill-opacity:1;stroke:#009de7;stroke-width:0;stroke-dasharray:none;stroke-opacity:1"
         d="m 2340.6338,585.3281 h -100.2811 l 100.2811,-9.28233 v 18.56466 l -100.2811,-9.28233"
         id="path11-58"
         inkscape:tile-cx="1331.5052"
         inkscape:tile-cy="543.58697"
         inkscape:tile-w="19.791601"
         inkscape:tile-h="106.90864"
         inkscape:tile-x0="1321.6094"
         inkscape:tile-y0="490.13265" /><path
         style="fill:#009de7;fill-opacity:1;stroke:#009de7;stroke-width:0;stroke-dasharray:none;stroke-opacity:1"
         d="m 2308.6607,466.00232 -86.846,50.14052 82.2048,-58.17925 9.2823,16.07746 -91.4871,42.10179"
         id="path11-58-0"
         inkscape:tile-cx="1331.5052"
         inkscape:tile-cy="543.58697"
         inkscape:tile-w="19.791601"
         inkscape:tile-h="106.90864"
         inkscape:tile-x0="1321.6094"
         inkscape:tile-y0="490.13265" /><path
         style="fill:#009de7;fill-opacity:1;stroke:#009de7;stroke-width:0;stroke-dasharray:none;stroke-opacity:1"
         d="m 2221.3081,378.64979 -50.1405,86.84591 42.1017,-91.48708 16.0775,9.28233 -58.1792,82.20475"
         id="path11-58-1"
         inkscape:tile-cx="1331.5052"
         inkscape:tile-cy="543.58697"
         inkscape:tile-w="19.791601"
         inkscape:tile-h="106.90864"
         inkscape:tile-x0="1321.6094"
         inkscape:tile-y0="490.13265" /><path
         style="fill:#009de7;fill-opacity:1;stroke:#009de7;stroke-width:0;stroke-dasharray:none;stroke-opacity:1"
         d="m 2101.9824,346.67655 v 100.28103 l -9.2823,-100.28103 h 18.5647 l -9.2824,100.28103"
         id="path11-58-2"
         inkscape:tile-cx="1331.5052"
         inkscape:tile-cy="543.58697"
         inkscape:tile-w="19.791601"
         inkscape:tile-h="106.90864"
         inkscape:tile-x0="1321.6094"
         inkscape:tile-y0="490.13265" /><path
         style="fill:#009de7;fill-opacity:1;stroke:#009de7;stroke-width:0;stroke-dasharray:none;stroke-opacity:1"
         d="m 1982.6566,378.64979 50.1405,86.84592 -58.1794,-82.20475 16.0776,-9.28233 42.1018,91.48708"
         id="path11-58-9"
         inkscape:tile-cx="1331.5052"
         inkscape:tile-cy="543.58697"
         inkscape:tile-w="19.791601"
         inkscape:tile-h="106.90864"
         inkscape:tile-x0="1321.6094"
         inkscape:tile-y0="490.13265" /><path
         style="fill:none;fill-opacity:1;stroke:#009de7;stroke-width:18.7601;stroke-linecap:round;stroke-dasharray:none;stroke-opacity:1"
         d="M 1925.1668,1389.4365 V 1204.1513"
         id="path20" /><path
         style="fill:none;fill-opacity:1;stroke:#009de7;stroke-width:18.7601;stroke-linecap:round;stroke-dasharray:none;stroke-opacity:1"
         d="m 2261.0793,1385.114 c 0,0 -142.2068,171.7837 -335.9125,4.3225"
         id="path21-9" /><path
         style="fill:none;fill-opacity:1;stroke:#009de7;stroke-width:18.7601;stroke-linecap:round;stroke-dasharray:none;stroke-opacity:1"
         d="m 1925.1668,1389.4365 c 0,0 -125.4024,151.4843 -301.0927,31.2744"
         id="path21-9-5"
         sodipodi:nodetypes="cc" /><g
         id="group-R5"
         transform="matrix(0.13327877,-0.03538898,0.03538898,0.13327877,1622.8475,560.44855)"
         style="fill:#009de7;fill-opacity:1;stroke:#009de7;stroke-opacity:1"><path
           id="path2-4"
           d="m 5472.67,2695.74 c -99.04,72.83 -239.52,51.53 -312.35,-47.5 l -133.86,-181.78 c -72.83,-98.89 -51.52,-239.52 47.36,-312.34 L 6457.17,1135.63 c 98.88,-72.82 239.36,-51.37 312.2,47.5 l 133.85,181.79 c 72.98,98.89 51.53,239.51 -47.35,312.35 z M 2604.49,5640.06 c 35.4,-117.67 160.48,-184.96 278.22,-149.55 l 216.19,64.98 c 117.59,35.34 184.96,160.56 149.55,278.16 l -494.42,1645.02 c -35.4,117.74 -160.63,185.03 -278.37,149.69 l -216.18,-65.06 c -117.6,-35.41 -184.96,-160.55 -149.55,-278.15 z M 3158.2,3431.1 c 261.1,-372.64 437.42,-541.19 690.45,-812.36 l 754.93,-651.31 c 42.04,-25.91 123.07,-71.53 168.7,-14.82 L 4901.53,2112.67 6482.07,965.219 C 6478.18,602.941 5812.49,290.461 5499.43,376.68 3590,902.18 2555.55,2337.49 2211.4,2763.54 1925.69,3230.74 921.465,4687.29 1067.99,6662.28 c 24.04,323.71 541.91,845.75 884.48,727.87 l 549.68,-1874.24 -194.31,-67.86 c -68.51,-24.04 -52.83,-115.58 -42.61,-163.94 l 359.84,-929.96 c 170.27,-329.32 269.88,-551.99 533.13,-923.05"
           style="fill:#009de7;fill-opacity:1;fill-rule:evenodd;stroke:#009de7;stroke-opacity:1"
           transform="matrix(0.13333333,0,0,-0.13333333,0,1066.6667)" /><path
           id="path2-4-2"
           d="m 3264.1769,1380.2072 c -13.2053,-9.7107 -31.936,-6.8707 -41.6467,6.3333 l -17.848,24.2374 c -9.7106,13.1853 -6.8693,31.936 6.3147,41.6453 l 184.4467,135.7987 c 13.184,9.7093 31.9146,6.8493 41.6266,-6.3334 l 17.8467,-24.2386 c 9.7307,-13.1854 6.8707,-31.9347 -6.3133,-41.6467 z m -382.424,-392.576 c 4.72,15.6893 21.3974,24.6613 37.096,19.94 l 28.8254,-8.664 c 15.6786,-4.712 24.6613,-21.408 19.94,-37.088 l -65.9227,-219.33602 c -4.72,-15.6986 -21.4173,-24.6706 -37.116,-19.9586 l -28.824,8.6746 c -15.68,4.7214 -24.6613,21.4067 -19.94,37.0867 z m 73.828,294.528 c 34.8134,49.6853 58.3227,72.1587 92.06,108.3147 l 100.6574,86.8413 c 5.6053,3.4547 16.4093,9.5373 22.4933,1.976 l 17.2333,-21.3413 210.7387,152.9934 c -0.5187,48.3038 -89.2774,89.9678 -131.0187,78.4719 -254.5906,-70.0667 -392.5173,-261.4413 -438.404,-318.248 -38.0946,-62.2933 -171.9913,-256.5 -152.4546,-519.832 3.2053,-43.16133 72.2546,-112.76662 117.9306,-97.04932 l 73.2907,249.89862 -25.908,9.048 c -9.1347,3.2054 -7.044,15.4107 -5.6813,21.8587 l 47.9786,123.9947 c 22.7027,43.9093 35.984,73.5986 71.084,123.0733"
           style="fill:#009de7;fill-opacity:1;fill-rule:evenodd;stroke:#009de7;stroke-width:0.133333;stroke-opacity:1" /></g></g><path
       id="path2-4-2-1"
       d="m 1741.2509,1886.2361 c 11.1412,-3.7094 17.2252,-15.8414 13.5163,-26.982 l -6.7984,-20.4635 c -3.6982,-11.133 -15.8419,-17.2244 -26.9739,-13.5267 l -155.7131,51.7461 c -11.1315,3.6976 -17.2039,15.8373 -13.5082,26.9698 l 6.7995,20.4639 c 3.6899,11.1447 15.8403,17.2245 26.9738,13.5281 z m 387.7939,-61.3811 c -11.1301,-3.7264 -23.2752,2.3196 -27.0045,13.4555 l -6.8515,20.446 c -3.7269,11.1202 2.3258,23.279 13.451,27.0011 l 155.5709,52.1339 c 11.1354,3.7308 23.2888,-2.327 27.0235,-13.4595 l 6.8452,-20.4487 c 3.722,-11.1252 -2.3255,-23.2791 -13.4506,-27.0011 z m -202.8274,-78.6024 c -43.4613,-0.1802 -66.3301,4.28 -101.4321,9.0654 l -92.4249,22.974 c -4.3391,1.8504 -12.3649,5.6552 -10.4576,12.3411 l 5.3584,18.9065 -176.6439,60.017 c -28.0435,-20.2782 -15.7137,-89.4298 8.2726,-109.0951 146.2653,-119.9614 315.2535,-121.5115 367.46,-124.8648 52.1943,3.4736 221.1734,5.4521 367.1429,125.7721 23.9239,19.7233 36.09,88.8997 8.008,109.121 l -176.4968,-60.462 5.4199,-18.8978 c 1.9024,-6.6692 -6.1026,-10.4931 -10.4362,-12.3638 l -92.3765,-23.2064 c -35.0744,-4.8761 -57.9349,-9.3836 -101.3918,-9.3085"
       style="fill:#009de7;fill-opacity:1;fill-rule:evenodd;stroke:#009de7;stroke-width:0;stroke-dasharray:none;stroke-opacity:1" /><circle
       style="fill:none;stroke:#009de7;stroke-width:75;stroke-linecap:round;stroke-dasharray:none"
       id="path4"
       cx="1920"
       cy="1080"
       r="971.56909" /><text
       xml:space="preserve"
       style="font-size:200px;font-family:Helvetica;-inkscape-font-specification:Helvetica;text-align:end;letter-spacing:0px;direction:rtl;text-anchor:end;fill:#009de7;stroke:#009de7;stroke-width:0;stroke-linecap:round;stroke-dasharray:none;fill-opacity:1"
       x="1497.6624"
       y="748.55756"
       id="text4"><tspan
         sodipodi:role="line"
         id="tspan4"
         x="1497.6624"
         y="748.55756" /></text></g></svg>
